<?xml version="1.0" encoding="utf-8"?>
<!-- Generator: Adobe Illustrator 25.1.0, SVG Export Plug-In . SVG Version: 6.00 Build 0)  -->
<svg version="1.1" id="Layer_1" xmlns="http://www.w3.org/2000/svg" xmlns:xlink="http://www.w3.org/1999/xlink" x="0px" y="0px"
	 viewBox="0 0 47.8 25.5" style="enable-background:new 0 0 47.8 25.5;" xml:space="preserve">
<style type="text/css">
	.st0{fill:none;stroke:#000000;stroke-miterlimit:10;}
	.st1{fill:#FFFFFF;stroke:#000000;stroke-width:2;stroke-miterlimit:10;}
</style>
<path class="st0" d="M0.5,25c0-3.1,0.6-6.2,1.8-9.1C4.7,10.3,9.2,5.8,14.8,3.4c2.9-1.2,6-1.8,9.1-1.8c3.1,0,6.2,0.6,9.1,1.8
	c5.6,2.4,10.1,6.9,12.5,12.5c1.2,2.9,1.9,6,1.8,9.1h-3.2c0.1-5.4-2-10.6-5.9-14.3c-3.8-3.9-8.9-6-14.3-5.9c-5.4-0.1-10.6,2-14.3,5.9
	c-3.9,3.8-6,8.9-5.9,14.3H0.5z M6.9,25c-0.1-4.5,1.7-8.9,4.9-12.1c3.2-3.2,7.5-5,12.1-5c4.5-0.1,8.9,1.7,12.1,5
	c3.2,3.2,5,7.5,5,12.1h-3.2c0.1-7.6-6-13.8-13.6-13.8c-0.1,0-0.1,0-0.2,0c-7.6-0.1-13.8,6-13.8,13.6c0,0.1,0,0.1,0,0.2H6.9z"/>
<path class="st1" d="M19.8,2.7l-1.3,4.8l3.2,3.8c0.2,0.3,0.2,0.7-0.1,0.9c-0.1,0.1-0.3,0.2-0.4,0.2l-4.9,0.2l-2.6,4.2
	c-0.2,0.3-0.6,0.4-0.9,0.2c-0.1-0.1-0.2-0.2-0.3-0.3l-1.8-4.6L6,10.9c-0.4-0.1-0.6-0.5-0.5-0.8c0-0.1,0.1-0.3,0.2-0.4l3.8-3.1
	L9.2,1.7C9.1,1.3,9.4,1,9.8,1c0.1,0,0.3,0,0.4,0.1l4.1,2.7l4.6-1.9c0.3-0.2,0.7,0,0.9,0.3C19.9,2.4,19.9,2.6,19.8,2.7z"/>
</svg>
